# xmcd
#
# Track frame offsets:
#	183
#	13638
#	25593
#	35858
#	46395
#	55935
#	72908
#	84853
#	98068
#	113278
#	126060
#	136645
#	148908
#	161058
#	171838
#	183928
#
# Disc length: 2604 seconds
#
# Revision: 3145761
# Processed by: cddbd v1.5.2PL0 Copyright (c) Steve Scherf et al.
# Submitted via: EZCDAudioConverter 9.1.1.1
#
DISCID=cb0a2a10
DTITLE=Various Artist - Ladies Of Country and Western Vol. 1
DYEAR=2003
DGENRE=Country
TTITLE0=Lynn Anderson - Rosegarden
TTITLE1=Donna Fargo - Us Of America
TTITLE2=Lynn Anderson - Fool Me One More Time
TTITLE3=Dolly Parton - Honky Tonk Angels
TTITLE4=Lynn Anderson - Snowbird
TTITLE5=Lynn Anderson - Blue Bayou
TTITLE6=Dolly Parton - Letter To Heaven
TTITLE7=Lynn Anderson - Top Of The World
TTITLE8=Lynn Anderson - Desperado
TTITLE9=Billie Jo Spears - You,Ve Got The Power
TTITLE10=Lynn Anderson - Heartbreak Hotel
TTITLE11=Dolly Parton - Two Little Orphans
TTITLE12=Lynn Anderson - You Don't Have To Say You Love Me
TTITLE13=Lynn Anderson - Heaven's Just A Sihn Away
TTITLE14=Donna Fargo - Funny Face
TTITLE15=Lynn Anderson - That'll Be The Day
EXTD=
EXTT0=
EXTT1=
EXTT2=
EXTT3=
EXTT4=
EXTT5=
EXTT6=
EXTT7=
EXTT8=
EXTT9=
EXTT10=
EXTT11=
EXTT12=
EXTT13=
EXTT14=
EXTT15=
PLAYORDER=
